<svg xmlns="http://www.w3.org/2000/svg" viewBox="0 0 512 512">
  <rect x="8" y="8" width="496" height="496" rx="126" fill="#4d4d4d"/>
  <g fill="none" stroke="#ffffff" stroke-linecap="round" stroke-linejoin="round">
    <!-- house: left wall + roof (right roof runs above robot head, tapering into wave zone) -->
    <path d="M 102 380 L 102 212 L 248 90 L 384 203" stroke-width="24"/>
    <!-- person swoosh -->
    <path d="M 136 246 C 108 300 104 358 158 390 C 234 424 330 418 400 388 C 424 378 438 360 441 340" stroke-width="24"/>
    <!-- arm flowing from head into tray -->
    <path d="M 186 238 C 192 274 206 298 238 306 L 296 306" stroke-width="17"/>
  </g>
  <!-- person head -->
  <circle cx="192" cy="200" r="32" fill="none" stroke="#ffffff" stroke-width="21"/>
  <!-- cup -->
  <g>
    <rect x="240" y="262" width="36" height="35" rx="7" fill="#ffffff"/>
    <path d="M 276 270 a 10.5 10.5 0 0 1 0 20" fill="none" stroke="#ffffff" stroke-width="9" stroke-linecap="round"/>
  </g>
  <!-- robot (outline style) -->
  <g fill="none" stroke="#ffffff" stroke-linejoin="round">
    <rect x="302" y="216" width="66" height="56" rx="17" stroke-width="13"/>
    <rect x="316" y="230" width="38" height="27" rx="13.5" stroke-width="7"/>
    <rect x="304" y="284" width="66" height="62" rx="15" stroke-width="13"/>
    <rect x="290" y="348" width="112" height="33" rx="16.5" stroke-width="11"/>
    <circle cx="378" cy="364" r="7.5" stroke-width="7"/>
  </g>
  <rect x="321" y="239" width="13" height="9" rx="4.5" fill="#ffffff"/>
  <rect x="337" y="239" width="13" height="9" rx="4.5" fill="#ffffff"/>
  <rect x="329" y="272" width="16" height="12" fill="#ffffff"/>
  <rect x="344" y="296" width="14" height="38" rx="7" fill="#c0c0c0"/>
  <!-- waves -->
  <g fill="none" stroke="#c0c0c0" stroke-width="11" stroke-linecap="round">
    <path d="M 400.2 228.2 A 20 20 0 0 1 400.2 251.8"/>
    <path d="M 413.1 218.8 A 36 36 0 0 1 413.1 261.2"/>
    <path d="M 426.1 209.4 A 52 52 0 0 1 426.1 270.6"/>
  </g>
</svg>
